<svg xmlns="http://www.w3.org/2000/svg" viewBox="0 0 800 800" width="800" height="800">
    <g strokeWidth="1.75" fill="hsl(261, 60%, 38%)">
        <circle r="2.079" />
        <circle r="2.079" cx="80" />
        <circle r="2.079" cx="160" />
        <circle r="2.079" cx="240" />
        <circle r="2.079" cx="320" />
        <circle r="2.079" cx="400" />
        <circle r="2.079" cx="480" />
        <circle r="2.079" cx="560" />
        <circle r="2.079" cx="640" />
        <circle r="2.079" cx="720" />
        <circle r="2.079" cx="800" />
        <circle r="2.079" cy="80" />
        <circle r="2.079" cx="80" cy="80" />
        <circle r="2.079" cx="160" cy="80" />
        <circle r="2.079" cx="240" cy="80" />
        <circle r="2.079" cx="320" cy="80" />
        <circle r="2.079" cx="400" cy="80" />
        <circle r="2.079" cx="480" cy="80" />
        <circle r="2.079" cx="560" cy="80" />
        <circle r="2.079" cx="640" cy="80" />
        <circle r="2.079" cx="720" cy="80" />
        <circle r="2.079" cx="800" cy="80" />
        <circle r="2.079" cy="160" />
        <circle r="2.079" cx="80" cy="160" />
        <circle r="2.079" cx="160" cy="160" />
        <circle r="2.079" cx="240" cy="160" />
        <circle r="2.079" cx="320" cy="160" />
        <circle r="2.079" cx="400" cy="160" />
        <circle r="2.079" cx="480" cy="160" />
        <circle r="2.079" cx="560" cy="160" />
        <circle r="2.079" cx="640" cy="160" />
        <circle r="2.079" cx="720" cy="160" />
        <circle r="2.079" cx="800" cy="160" />
        <circle r="2.079" cy="240" />
        <circle r="2.079" cx="80" cy="240" />
        <circle r="2.079" cx="160" cy="240" />
        <circle r="2.079" cx="240" cy="240" />
        <circle r="2.079" cx="320" cy="240" />
        <circle r="2.079" cx="400" cy="240" />
        <circle r="2.079" cx="480" cy="240" />
        <circle r="2.079" cx="560" cy="240" />
        <circle r="2.079" cx="640" cy="240" />
        <circle r="2.079" cx="720" cy="240" />
        <circle r="2.079" cx="800" cy="240" />
        <circle r="2.079" cy="320" />
        <circle r="2.079" cx="80" cy="320" />
        <circle r="2.079" cx="160" cy="320" />
        <circle r="2.079" cx="240" cy="320" />
        <circle r="2.079" cx="320" cy="320" />
        <circle r="2.079" cx="400" cy="320" />
        <circle r="2.079" cx="480" cy="320" />
        <circle r="2.079" cx="560" cy="320" />
        <circle r="2.079" cx="640" cy="320" />
        <circle r="2.079" cx="720" cy="320" />
        <circle r="2.079" cx="800" cy="320" />
        <circle r="2.079" cy="400" />
        <circle r="2.079" cx="80" cy="400" />
        <circle r="2.079" cx="160" cy="400" />
        <circle r="2.079" cx="240" cy="400" />
        <circle r="2.079" cx="320" cy="400" />
        <circle r="2.079" cx="400" cy="400" />
        <circle r="2.079" cx="480" cy="400" />
        <circle r="2.079" cx="560" cy="400" />
        <circle r="2.079" cx="640" cy="400" />
        <circle r="2.079" cx="720" cy="400" />
        <circle r="2.079" cx="800" cy="400" />
        <circle r="2.079" cy="480" />
        <circle r="2.079" cx="80" cy="480" />
        <circle r="2.079" cx="160" cy="480" />
        <circle r="2.079" cx="240" cy="480" />
        <circle r="2.079" cx="320" cy="480" />
        <circle r="2.079" cx="400" cy="480" />
        <circle r="2.079" cx="480" cy="480" />
        <circle r="2.079" cx="560" cy="480" />
        <circle r="2.079" cx="640" cy="480" />
        <circle r="2.079" cx="720" cy="480" />
        <circle r="2.079" cx="800" cy="480" />
        <circle r="2.079" cy="560" />
        <circle r="2.079" cx="80" cy="560" />
        <circle r="2.079" cx="160" cy="560" />
        <circle r="2.079" cx="240" cy="560" />
        <circle r="2.079" cx="320" cy="560" />
        <circle r="2.079" cx="400" cy="560" />
        <circle r="2.079" cx="480" cy="560" />
        <circle r="2.079" cx="560" cy="560" />
        <circle r="2.079" cx="640" cy="560" />
        <circle r="2.079" cx="720" cy="560" />
        <circle r="2.079" cx="800" cy="560" />
        <circle r="2.079" cy="640" />
        <circle r="2.079" cx="80" cy="640" />
        <circle r="2.079" cx="160" cy="640" />
        <circle r="2.079" cx="240" cy="640" />
        <circle r="2.079" cx="320" cy="640" />
        <circle r="2.079" cx="400" cy="640" />
        <circle r="2.079" cx="480" cy="640" />
        <circle r="2.079" cx="560" cy="640" />
        <circle r="2.079" cx="640" cy="640" />
        <circle r="2.079" cx="720" cy="640" />
        <circle r="2.079" cx="800" cy="640" />
        <circle r="2.079" cy="720" />
        <circle r="2.079" cx="80" cy="720" />
        <circle r="2.079" cx="160" cy="720" />
        <circle r="2.079" cx="240" cy="720" />
        <circle r="2.079" cx="320" cy="720" />
        <circle r="2.079" cx="400" cy="720" />
        <circle r="2.079" cx="480" cy="720" />
        <circle r="2.079" cx="560" cy="720" />
        <circle r="2.079" cx="640" cy="720" />
        <circle r="2.079" cx="720" cy="720" />
        <circle r="2.079" cx="800" cy="720" />
        <circle r="2.079" cy="800" />
        <circle r="2.079" cx="80" cy="800" />
        <circle r="2.079" cx="160" cy="800" />
        <circle r="2.079" cx="240" cy="800" />
        <circle r="2.079" cx="320" cy="800" />
        <circle r="2.079" cx="400" cy="800" />
        <circle r="2.079" cx="480" cy="800" />
        <circle r="2.079" cx="560" cy="800" />
        <circle r="2.079" cx="640" cy="800" />
        <circle r="2.079" cx="720" cy="800" />
        <circle r="2.079" cx="800" cy="800" />
    </g>
</svg>
